<svg xmlns="http://www.w3.org/2000/svg" viewBox="0 0 576 512">
  <!-- Outer wheels -->
  <path d="M528 448c0 35.35-28.65 64-64 64s-64-28.65-64-64 28.65-64 64-64 64 28.65 64 64zM208 448c0 35.35-28.65 64-64 64s-64-28.65-64-64 28.65-64 64-64 64 28.65 64 64z"/>

  <!-- Cart outline with hollow center -->
  <path d="M0 32c0-17.67 14.33-32 32-32h34.74c23.96 0 45.04 16.37 51.04 39.63L145.4 160H488c16.94 0 31.83 11.12 37.02 27.46l48.02 144C577.2 347.2 544.6 384 503.1 384H186.9c-14.61 0-27.46-9.734-31.83-23.88L72.73 69.37C70.11 59.69 60.87 53.33 50.74 53.33H32C14.33 53.33 0 39 0 21.33V32z" fill="none" stroke="black" stroke-width="16"/>

  <!-- Inner hollow (cart body) -->
  <circle cx="144" cy="120" r="80" fill="white" stroke="black" stroke-width="16"/>
</svg>
